<svg width="25" height="25" viewBox="0 0 25 25" fill="none" xmlns="http://www.w3.org/2000/svg">
<path d="M12.4884 8.32593C10.1947 8.32593 8.3228 10.1978 8.3228 12.4916C8.3228 14.7853 10.1947 16.6572 12.4884 16.6572C14.7822 16.6572 16.6541 14.7853 16.6541 12.4916C16.6541 10.1978 14.7822 8.32593 12.4884 8.32593ZM24.9822 12.4916C24.9822 10.7666 24.9978 9.05718 24.9009 7.3353C24.8041 5.3353 24.951 2.95371 23.4885 1.49121C22.0229 0.0255859 19.6478 0.179054 17.6478 0.0821795C15.9228 -0.0146955 14.2134 0.000929513 12.4916 0.000929513C10.7666 0.000929513 9.05718 -0.0146955 7.3353 0.0821795C5.3353 0.179054 2.95103 0.028711 1.48853 1.49121C0.0229003 2.95684 0.179054 5.3353 0.0821795 7.3353C-0.0146955 9.0603 0.000929513 10.7697 0.000929513 12.4916C0.000929513 14.2134 -0.0146955 15.9259 0.0821795 17.6478C0.179054 19.6478 0.0260254 22.0287 1.48853 23.4912C2.95415 24.9568 5.3353 24.8041 7.3353 24.9009C9.0603 24.9978 10.7697 24.9822 12.4916 24.9822C14.2166 24.9822 15.9259 24.9978 17.6478 24.9009C19.6478 24.8041 22.026 24.9537 23.4885 23.4912C24.9542 22.0256 24.8041 19.6478 24.9009 17.6478C25.0009 15.9259 24.9822 14.2166 24.9822 12.4916ZM12.4884 18.9009C8.94155 18.9009 6.07905 16.0384 6.07905 12.4916C6.07905 8.94468 8.94155 6.08218 12.4884 6.08218C16.0353 6.08218 18.8978 8.94468 18.8978 12.4916C18.8978 16.0384 16.0353 18.9009 12.4884 18.9009ZM19.1603 7.31655C18.3322 7.31655 17.6634 6.6478 17.6634 5.81968C17.6634 4.99155 18.3322 4.3228 19.1603 4.3228C19.9884 4.3228 20.6572 4.99155 20.6572 5.81968C20.6574 6.01632 20.6189 6.21108 20.5437 6.3928C20.4686 6.57452 20.3584 6.73963 20.2193 6.87868C20.0803 7.01773 19.9151 7.12798 19.7334 7.20311C19.5517 7.27825 19.3569 7.3168 19.1603 7.31655Z" fill="#43FFD2"/>
</svg>
