<svg width="16" height="16" viewBox="0 0 16 16" fill="none" xmlns="http://www.w3.org/2000/svg">
<path d="M13.0002 14.6667C13.5515 14.6667 14.0002 14.218 14.0002 13.6667V11.3333C14.0002 10.782 13.5515 10.3333 13.0002 10.3333C12.2202 10.3333 11.4535 10.2107 10.7202 9.96867C10.5449 9.91331 10.3578 9.90659 10.179 9.94921C10.0002 9.99183 9.83631 10.0822 9.70483 10.2107L8.74483 11.1707C7.08557 10.2699 5.72285 8.90762 4.8215 7.24867L5.7735 6.29067C6.04816 6.036 6.14683 5.64867 6.0295 5.276C5.78799 4.54153 5.66555 3.77315 5.66683 3C5.66683 2.44867 5.21816 2 4.66683 2H2.3335C1.78216 2 1.3335 2.44867 1.3335 3C1.3335 9.43333 6.56683 14.6667 13.0002 14.6667ZM2.3335 2.66667H4.66683C4.75523 2.66667 4.84002 2.70179 4.90253 2.7643C4.96504 2.82681 5.00016 2.91159 5.00016 3C5.00016 3.85133 5.1335 4.68733 5.3955 5.48C5.41475 5.53752 5.417 5.59937 5.40198 5.65814C5.38696 5.71691 5.35531 5.7701 5.31083 5.81133L4.00683 7.122C5.09816 9.274 6.71016 10.886 8.87216 11.9867L10.1715 10.6867C10.2158 10.6428 10.2713 10.6118 10.3319 10.597C10.3925 10.5822 10.4559 10.5842 10.5155 10.6027C11.3128 10.8667 12.1488 11 13.0002 11C13.1835 11 13.3335 11.15 13.3335 11.3333V13.6667C13.3335 13.85 13.1835 14 13.0002 14C6.93483 14 2.00016 9.06533 2.00016 3C2.00016 2.91159 2.03528 2.82681 2.09779 2.7643C2.16031 2.70179 2.24509 2.66667 2.3335 2.66667Z" fill="#43FFD2"/>
</svg>
