<svg width="24" height="24" viewBox="0 0 24 24" fill="none" xmlns="http://www.w3.org/2000/svg">
<path d="M19.9902 24H3.99023C1.99023 24 1.46365 23.707 0.878289 23.1211C0.292923 22.5352 -0.00976562 22 0.000240437 20V4C0.000240437 2 0.292923 1.46484 0.878289 0.878906C1.46365 0.292969 1.99023 0 3.99023 0H19.9902C20.8175 0 22.0036 0.0124413 22.9902 1C23.9768 1.98756 23.9768 3.17188 23.9768 4V20C23.9902 22 23.6841 22.5352 23.0988 23.1211C22.5134 23.707 21.9902 24 19.9902 24ZM7.49292 9V6.75C7.49292 6.32812 7.36414 5.91406 7.10658 5.50781C6.84902 5.10156 6.56414 4.8125 6.25195 4.64062C5.93975 4.46875 5.6978 4.46094 5.52609 4.61719L3.81683 6.35156C3.34853 6.82031 3.08317 7.44922 3.02073 8.23828C2.95829 9.02734 3.07926 9.88672 3.38366 10.8164C3.68805 11.7461 4.17585 12.7305 4.84707 13.7695C5.51829 14.8086 6.32219 15.7969 7.25878 16.7344C8.19536 17.6719 9.18268 18.4766 10.2207 19.1484C11.2588 19.8203 12.2422 20.3125 13.171 20.625C14.0998 20.9375 14.9583 21.0625 15.7466 21C16.5349 20.9375 17.1632 20.6719 17.6315 20.2031L19.3641 18.4688C19.5202 18.3125 19.5124 18.0742 19.3407 17.7539C19.169 17.4336 18.8802 17.1445 18.4744 16.8867C18.0685 16.6289 17.6549 16.5 17.2334 16.5H14.9856L13.4637 17.4375C12.7612 17.25 11.8949 16.7422 10.8646 15.9141C9.83439 15.0859 8.90561 14.1562 8.07829 13.125C7.25097 12.0938 6.74365 11.2266 6.55634 10.5234L7.49292 9ZM16.4373 12.75L17.9593 13.0078C17.8344 11.1328 17.1085 9.53125 15.7817 8.20312C14.4549 6.875 12.8627 6.14844 11.0051 6.02344L11.2393 7.54688C12.5973 7.71875 13.7602 8.28906 14.728 9.25781C15.6959 10.2266 16.2656 11.3906 16.4373 12.75ZM11.5202 9.11719L11.8012 10.8047C12.41 11.1016 12.8705 11.5625 13.1827 12.1875L14.8685 12.4688C14.6656 11.6406 14.2637 10.9258 13.6627 10.3242C13.0617 9.72266 12.3476 9.32031 11.5202 9.11719ZM10.49 3L10.7476 4.52344C12.3085 4.55469 13.7485 4.96484 15.0676 5.75391C16.3866 6.54297 17.4402 7.59766 18.2285 8.91797C19.0168 10.2383 19.4266 11.6797 19.4578 13.2422L20.9798 13.5C20.9798 12.0781 20.7027 10.7188 20.1485 9.42188C19.5944 8.125 18.849 7.00781 17.9124 6.07031C16.9759 5.13281 15.8598 4.38672 14.5641 3.83203C13.2685 3.27734 11.9105 3 10.49 3Z" fill="#43FFD2"/>
</svg>
