<svg width="254" height="189" viewBox="0 0 254 189" fill="none" xmlns="http://www.w3.org/2000/svg">
<path d="M19.9714 137.293C19.6565 137.35 19.4991 137.379 19.1842 137.436C18.0536 137.478 17.6248 136.905 18.0836 135.846C18.715 133.944 20.033 132.242 21.594 130.984C27.3941 126.195 33.8089 122.107 40.1232 118.363C41.2973 117.663 41.7846 116.762 42.4294 115.832C45.8544 110.497 48.7785 105.09 51.3022 99.268C54.4288 91.3855 57.341 83.2165 58.5933 74.8601C59.3852 69.3511 59.7048 63.9275 60.1818 58.4755C60.5013 53.052 60.3201 47.5565 59.7954 41.9605C59.5976 39.0695 59.5572 36.1501 59.016 33.1586C58.9875 33.0012 58.9305 32.6863 58.902 32.5289C59.103 31.8421 58.5887 30.797 59.3759 30.6545C60.0057 30.5406 60.0761 31.8286 60.1901 32.4584C60.8017 36.7379 61.2274 40.8884 61.3667 45.2533C61.4491 49.3034 61.5314 53.3534 61.2704 57.303C61.0529 60.5943 60.9643 63.6997 60.7183 66.8335C60.3283 70.969 59.6235 75.1615 58.8901 79.1965C57.9408 84.734 56.1188 89.9415 54.1393 95.1776C52.1599 100.414 49.9945 105.521 47.2714 110.241C46.4256 111.857 45.3655 113.187 44.4912 114.646C44.2333 115.018 43.8179 115.418 44.2183 115.834C44.4327 116.12 44.8481 115.72 45.1345 115.505C49.6014 113.234 54.0684 110.962 58.5638 108.848C63.3741 106.677 68.3989 104.793 73.2092 102.621C76.6595 101.022 79.9809 99.6078 83.6456 98.2944C89.6435 96.3962 95.5274 93.8683 101.74 92.2566C103.601 91.7573 105.647 91.387 107.423 90.4154C107.996 89.9866 109.155 90.1021 109.97 90.1171C110.285 90.0601 110.815 90.2896 110.871 90.6045C110.828 91.2627 110.485 91.1622 110.041 91.4051C101.911 93.2012 94.1089 95.9135 86.1782 98.8117C79.7649 101.11 73.4371 103.881 67.0808 106.494C63.602 107.937 60.1232 109.379 56.6729 110.979C53.4086 112.708 50.1442 114.437 46.8798 116.165C45.3908 116.922 43.9018 117.68 42.5988 118.566C41.5537 119.08 40.8519 119.695 40.3645 120.596C38.3297 123.728 35.866 126.288 33.2164 128.718C29.736 131.95 26.1987 134.866 21.8038 136.637C21.5174 136.851 21.2025 136.908 20.9161 137.122C20.6012 137.179 20.2863 137.236 19.9714 137.293ZM20.4018 136.077C20.8741 135.992 21.6328 135.692 22.2341 135.421C25.656 133.663 28.5485 131.677 31.327 129.06C33.5328 126.873 35.7101 124.527 37.7015 122.053C37.9879 121.839 38.4317 121.596 38.1888 121.152C37.8169 120.894 37.4016 121.295 37.1152 121.509C34.4806 123.124 31.8745 124.896 29.2684 126.668C26.1179 129.027 22.9105 131.071 20.3748 134.131C19.9595 134.531 19.5441 134.932 19.5006 135.59C19.4286 136.091 19.643 136.377 20.4018 136.077ZM81.6302 76.5457C80.5281 76.7451 78.9402 76.0568 78.4544 75.1691C77.9971 74.4389 77.9702 72.4926 78.486 71.7489C78.7439 71.377 79.1878 71.1341 79.5596 71.392C80.0889 71.6214 79.831 71.9933 79.7305 72.3367C79.4006 73.2094 78.9702 74.4254 80.0573 75.0417C81.1444 75.658 81.9751 74.8573 82.8343 74.2141C83.4072 73.7853 83.794 73.2275 84.2094 72.8271C84.6248 72.4268 84.5678 72.1119 83.9095 72.0684C82.9649 72.2393 81.9347 71.9379 81.6064 71.0217C81.278 70.1055 82.1088 69.3048 82.782 68.5326C84.4435 66.9313 86.2893 67.2477 87.4468 69.1521C87.6897 69.5959 87.9326 70.0398 88.405 69.9543C90.3513 69.9274 92.3695 69.3996 94.4163 69.0293C95.0461 68.9154 95.8048 68.6155 96.5921 68.4731C96.7495 68.4446 97.1933 68.2017 97.2788 68.674C97.3358 68.9889 97.0209 69.0459 96.7345 69.2603C93.8 70.1164 91.08 71.2589 88.2895 71.1134C87.4738 71.0984 86.9294 71.6846 86.5711 72.3999C85.6968 73.8588 84.5797 74.8739 83.2766 75.76C82.7038 76.1889 82.26 76.4318 81.6302 76.5457ZM99.2392 78.4004C96.7201 78.8562 94.8038 77.2517 95.1638 74.7476C95.4517 72.7443 95.9256 70.87 96.2421 69.0242C96.443 68.3375 96.6725 67.8081 97.5166 67.9806C98.0459 68.21 98.0024 68.8683 97.773 69.3976C97.4851 71.4009 96.7248 73.4896 96.7802 75.5933C96.7217 77.0673 97.2794 77.4542 98.8539 77.1693C100.4 76.727 101.646 75.526 102.92 74.4824C104.481 73.2244 104.239 72.7806 105.371 70.9498C105.758 70.392 105.858 70.0486 105.114 69.5328C104.371 69.0169 104.228 68.2297 104.716 67.3286C105.231 66.5849 105.719 65.6837 106.206 64.7825C106.564 64.0673 107.137 63.6385 108.01 63.9684C109.012 64.1124 109.469 64.8426 109.325 65.8442C109.41 66.3166 109.338 66.8174 109.08 67.1893C108.908 68.0334 109.28 68.2914 109.881 68.02C111.241 67.4487 112.63 67.0349 114.147 66.4352C116.294 65.7215 118.413 64.8504 120.56 64.1367C120.875 64.0797 121.319 63.8368 121.376 64.1517C121.648 64.753 120.989 64.7095 120.832 64.738C116.651 66.7951 112.471 68.8523 108.148 70.1222C107.361 70.2646 107.131 70.7939 106.744 71.3517C104.709 74.484 104.021 76.0719 100.628 77.9866C100.341 78.201 99.869 78.2865 99.2392 78.4004ZM106.603 68.7756C107.233 68.6617 108.352 65.8577 108.109 65.4139C107.894 65.1275 107.737 65.1559 107.451 65.3704C106.777 66.1426 106.133 67.0722 105.831 68.1023C105.759 68.6031 106.131 68.8611 106.603 68.7756ZM140.803 60.6369C137.18 63.081 133.372 65.396 129.506 67.3962C127.989 67.9959 126.657 68.7246 125.14 69.3243C123.751 69.7381 122.435 69.6511 121.061 69.2492C119.716 69.0048 119.202 67.9596 118.817 66.7286C118.76 66.4137 118.86 66.0703 118.989 65.8844C119.863 64.4254 120.895 62.938 122.327 61.8659C123.287 60.8793 124.575 60.8089 125.404 61.7971C126.047 62.6563 125.903 63.6579 124.943 64.6445C123.955 65.4737 122.781 66.1739 121.607 66.8741C121.292 66.9311 120.82 67.0165 120.877 67.3314C120.962 67.8038 121.334 68.0617 121.677 68.1621C122.708 68.4636 123.81 68.2642 124.726 67.9358C127.632 66.9223 130.295 65.4649 133.115 63.979C135.206 62.9504 137.425 61.736 139.515 60.7074C139.959 60.4645 140.274 60.4075 140.775 60.4795L140.803 60.6369ZM146.884 67.1789C145.596 67.2494 144.437 67.1339 143.608 66.1457C142.75 65.0001 143.209 63.9415 143.825 62.8544C144.312 61.9532 144.771 60.8946 145.416 59.965C145.517 59.6216 145.645 59.4357 145.431 59.1493C145.088 59.0488 144.959 59.2347 144.83 59.4207C143.341 60.1779 141.852 60.935 140.334 61.5348C139.733 61.8062 139.261 61.8916 138.602 61.8481C137.1 61.6321 136.643 60.9019 137.202 59.4999C138.321 56.696 139.997 54.2789 142.017 51.9623C142.146 51.7763 142.432 51.5619 142.561 51.376C143.134 50.9472 143.635 51.0192 144.35 51.3776C144.88 51.607 144.836 52.2653 144.764 52.7661C144.391 54.297 143.831 55.699 143.272 57.101C143.171 57.4443 142.756 57.8447 143.128 58.1026C143.342 58.389 143.786 58.1461 144.073 57.9317C145.118 57.4174 146.134 56.7457 147.18 56.2314C147.781 55.96 148.411 55.8461 148.839 56.4189C149.426 56.9632 149.01 57.3635 148.623 57.9213C147.176 59.8091 145.944 61.9833 145.026 64.1005C144.797 64.6298 144.539 65.0016 144.782 65.4455C145.21 66.0183 145.84 65.9044 146.313 65.8189C148.46 65.1052 150.336 63.7903 152.026 62.3463C153.587 61.0883 155.176 59.9878 156.337 58.3144C156.724 57.7566 157.353 57.6427 157.797 57.3998C158.112 57.3428 158.27 57.3143 158.298 57.4718C158.326 57.6292 158.355 57.7867 158.226 57.9726C155.118 61.4617 152.038 65.1083 147.643 66.8791C147.328 66.936 147.013 66.993 146.884 67.1789ZM139.133 60.2887C139.921 60.1463 139.936 59.3306 140.351 58.9302C141.697 57.3858 142.329 55.483 143.146 53.7092C143.275 53.5233 143.376 53.1799 143.032 53.0794C142.846 52.9504 142.717 53.1364 142.588 53.3223C141.27 55.0242 139.895 56.4111 139.106 58.3424C138.848 58.7142 138.776 59.2151 138.704 59.7159C138.604 60.0593 138.818 60.3457 139.133 60.2887ZM111.127 173.076C109.996 173.118 108.894 173.318 107.921 173.331C103.27 173.685 100.71 171.221 100.829 166.485C100.989 162.878 102.023 159.602 103.714 156.369C106.71 150.462 110.264 144.941 114.748 140.065C119.904 134.416 125.833 129.441 131.762 124.466C135.873 121.121 140.354 118.034 144.865 115.104C145.595 114.647 146.14 114.06 146.155 113.245C146.645 108.766 147.293 104.258 147.468 99.8366C147.584 98.6775 147.542 97.5469 147.343 96.4448C147.286 96.1299 147.043 95.686 147.515 95.6006C147.987 95.5151 148.202 95.8015 148.259 96.1164C148.616 97.19 148.815 98.2922 148.828 99.2653C148.624 103.53 148.234 107.665 147.53 111.858C147.587 112.173 147.2 112.73 147.729 112.96C148.101 113.218 148.516 112.817 148.831 112.76C154.1 109.531 159.398 106.459 164.724 103.544C164.882 103.515 165.011 103.329 165.325 103.272C165.64 103.215 165.826 103.344 166.041 103.631C166.255 103.917 165.969 104.132 165.84 104.317C165.267 104.746 164.852 105.147 164.379 105.232C159.097 107.489 154.486 110.762 149.632 113.591C147.541 114.62 147.011 116.179 146.723 118.182C145.959 123.849 144.695 129.443 142.773 134.994C141.281 139.329 139.631 143.692 137.61 147.798C135.459 152.089 133.123 156.252 130.2 159.87C126.605 164.26 122.551 167.92 117.698 170.75C115.607 171.778 113.489 172.649 111.127 173.076ZM110.455 172.06C112.216 171.904 113.761 171.462 115.279 170.862C118.887 169.234 121.88 166.904 124.787 164.101C128.139 161.056 130.904 157.466 133.14 153.647C138.098 145.108 141.841 136.138 144.025 126.638C144.743 123.418 145.333 120.385 145.708 117.065C145.837 116.879 145.937 116.536 145.565 116.278C145.193 116.02 144.935 116.392 144.649 116.606C140.425 119.322 136.415 122.324 132.277 125.511C127.15 129.528 122.423 133.96 117.726 138.55C114.689 141.538 112.081 145.1 109.474 148.661C107.797 151.078 106.335 153.781 104.873 156.485C103.153 159.56 102.12 162.836 101.773 166.314C101.355 170.292 103.199 172.397 107.12 172.501C108.279 172.616 109.353 172.259 110.455 172.06ZM186.271 77.0445C186.715 76.8016 187.086 77.0595 187.172 77.5318C187.415 77.9757 186.942 78.0611 186.499 78.304C177.781 81.3446 169.034 84.2278 160.345 87.4259C155.163 89.3391 150.195 91.5386 145.041 93.6092C137.325 96.7938 129.851 100.422 122.592 104.337C113.529 109.066 104.653 113.924 96.0754 119.541C94.4575 120.484 93.0255 121.556 91.1931 122.213C91.0642 122.399 90.7778 122.613 90.5633 122.327C90.3489 122.04 90.7928 121.797 90.9217 121.611C91.4945 121.183 92.1963 120.568 92.9266 120.111C98.6111 116.481 104.324 113.008 110.252 109.822C117.353 105.935 124.455 102.049 131.613 98.4776C139.402 94.7921 147.404 91.3931 155.464 88.309C163.939 84.8245 172.843 81.9128 181.403 78.9006C183.078 78.2724 184.596 77.6727 186.271 77.0445ZM153.381 134.863C152.539 132.902 153.642 130.914 153.93 128.911C154.694 123.244 156.172 117.936 158.152 112.7C159.113 109.925 160.446 107.407 161.593 104.761C163.916 99.625 166.425 94.6184 168.905 89.4543C171.414 84.4477 174.237 79.3841 177.09 74.478C179.196 70.8449 181.303 67.2117 183.753 63.6791C184.914 62.0057 185.917 60.3608 187.292 58.9739C187.55 58.602 187.966 58.2017 188.381 57.8014C189.24 57.1581 190.027 57.0157 190.929 57.503C191.672 58.0189 191.815 58.8061 191.8 59.6218C191.711 62.7272 190.778 65.6601 189.688 68.6215C188.655 71.8978 187.436 75.0451 185.873 78.0919C184.597 80.9244 183.35 83.9143 181.73 86.6462C180.598 88.477 179.68 90.5942 178.605 92.7399C177.042 95.7868 175.322 98.8621 173.788 102.066C170.261 109.534 165.647 116.384 161.219 123.364C159.442 126.125 157.637 128.728 155.517 131.388C154.585 132.532 154.44 135.322 155.326 136.625C155.941 137.327 156.599 137.371 157.358 137.071C158.746 136.657 159.863 135.642 160.823 134.655C163.158 132.282 165.307 129.779 167.613 127.248C167.742 127.062 167.971 126.533 168.343 126.791C168.715 127.049 168.3 127.449 168.013 127.663C165.707 130.195 163.773 132.983 161.652 135.643C160.693 136.63 159.704 137.459 158.502 138.002C155.939 139.116 154.108 137.984 153.381 134.863ZM190.527 58.8765C190.384 58.0893 189.698 57.8884 188.996 58.5031C187.019 60.1614 185.944 62.3071 184.655 64.1664C182.104 68.0425 179.711 71.89 177.475 75.709C175.296 79.843 172.931 83.848 170.752 87.9819C168.373 92.8026 166.021 97.7807 163.827 102.73C161.533 108.023 159.081 113.345 157.474 118.839C156.698 121.743 156.081 124.619 155.463 127.495C155.362 127.839 155.133 128.368 155.662 128.597C156.163 128.669 156.235 128.168 156.493 127.797C158.972 124.421 161.236 120.76 163.5 117.098C167.369 111.52 170.522 105.584 173.833 99.6193C175.883 95.6713 177.905 91.5658 180.112 87.5893C183.853 80.4085 187.251 73.1273 189.591 65.3871C190.194 63.3269 190.611 61.1377 190.527 58.8765ZM170.508 131.602C169.406 131.802 167.818 131.113 167.332 130.226C166.875 129.495 166.848 127.549 167.364 126.805C167.622 126.434 168.066 126.191 168.437 126.449C168.967 126.678 168.709 127.05 168.608 127.393C168.278 128.266 167.848 129.482 168.935 130.098C170.022 130.715 170.853 129.914 171.712 129.271C172.285 128.842 172.672 128.284 173.087 127.884C173.503 127.483 173.446 127.168 172.787 127.125C171.843 127.296 170.813 126.994 170.484 126.078C170.156 125.162 170.987 124.361 171.66 123.589C173.321 121.988 175.167 122.304 176.325 124.209C176.568 124.652 176.81 125.096 177.283 125.011C179.229 124.984 181.247 124.456 183.294 124.086C183.924 123.972 184.683 123.672 185.47 123.53C185.627 123.501 186.071 123.258 186.157 123.731C186.214 124.045 185.899 124.102 185.612 124.317C182.678 125.173 179.958 126.315 177.167 126.17C176.352 126.155 175.807 126.741 175.449 127.456C174.575 128.915 173.458 129.93 172.154 130.817C171.582 131.245 171.138 131.488 170.508 131.602ZM208.951 120.094C207.276 120.723 205.63 121.508 203.955 122.137C203.038 122.465 202.308 122.922 201.364 123.093C199.789 123.378 198.858 124.522 198.113 125.795C197.324 127.726 196.55 128.842 194.803 129.971C194.073 130.428 193.157 130.757 192.155 130.613C191.125 130.311 190.252 129.981 190.025 128.722C189.911 128.092 189.696 127.806 189.152 128.392C188.894 128.764 188.479 129.164 188.192 129.378C187.075 130.394 186.073 130.25 184.958 129.476C184.586 129.218 184.343 128.774 184.415 128.273C184.659 126.928 184.718 125.454 185.277 124.052C185.507 123.523 185.736 122.994 186.451 123.352C187.167 123.71 187.224 124.025 187.023 124.712C186.535 125.613 186.549 126.586 186.376 127.431C186.276 127.774 186.147 127.96 186.49 128.06C186.676 128.189 186.805 128.003 186.934 127.817C188.209 126.774 189.297 125.601 190.071 124.486C190.458 123.928 190.902 123.685 191.46 124.072C192.146 124.273 192.232 124.745 192.002 125.275C191.544 126.333 191.743 127.435 191.914 128.38C192.028 129.01 192.4 129.268 192.815 128.867C195.006 127.495 196.252 126.294 197.27 123.834C197.342 123.333 197.128 123.046 196.784 122.946C196.041 122.43 195.612 121.857 195.627 121.042C195.642 120.226 196.343 119.611 197.188 119.784C198.032 119.956 198.876 120.129 199.362 121.016C199.69 121.932 200.348 121.976 201.107 121.676C203.569 120.905 206.003 119.977 208.336 119.393C208.494 119.364 208.651 119.336 208.809 119.307C209.123 119.25 209.882 118.95 209.996 119.58C210.11 120.21 209.266 120.037 208.951 120.094ZM229.681 115.693C226.058 118.137 222.25 120.453 218.384 122.453C216.867 123.052 215.535 123.781 214.017 124.381C212.629 124.795 211.312 124.708 209.939 124.306C208.594 124.061 208.08 123.016 207.694 121.785C207.637 121.47 207.738 121.127 207.867 120.941C208.741 119.482 209.773 117.995 211.205 116.922C212.164 115.936 213.452 115.865 214.282 116.854C214.925 117.713 214.781 118.714 213.821 119.701C212.833 120.53 211.659 121.23 210.485 121.931C210.17 121.988 209.698 122.073 209.755 122.388C209.84 122.86 210.212 123.118 210.555 123.219C211.585 123.52 212.688 123.321 213.604 122.992C216.51 121.979 219.173 120.521 221.993 119.036C224.084 118.007 226.303 116.792 228.393 115.764C228.837 115.521 229.152 115.464 229.653 115.536L229.681 115.693ZM235.762 122.235C234.474 122.306 233.315 122.19 232.485 121.202C231.628 120.057 232.087 118.998 232.703 117.911C233.19 117.01 233.649 115.951 234.294 115.022C234.394 114.678 234.523 114.492 234.309 114.206C233.966 114.105 233.837 114.291 233.708 114.477C232.219 115.234 230.73 115.992 229.212 116.591C228.611 116.863 228.139 116.948 227.48 116.905C225.978 116.689 225.521 115.958 226.08 114.556C227.199 111.753 228.875 109.335 230.895 107.019C231.024 106.833 231.31 106.618 231.439 106.433C232.012 106.004 232.513 106.076 233.228 106.434C233.757 106.664 233.714 107.322 233.642 107.823C233.268 109.354 232.709 110.756 232.15 112.158C232.049 112.501 231.634 112.901 232.006 113.159C232.22 113.446 232.664 113.203 232.95 112.988C233.996 112.474 235.012 111.802 236.057 111.288C236.659 111.017 237.288 110.903 237.717 111.475C238.304 112.02 237.888 112.42 237.501 112.978C236.054 114.866 234.822 117.04 233.904 119.157C233.674 119.686 233.417 120.058 233.659 120.502C234.088 121.075 234.718 120.961 235.19 120.875C237.338 120.162 239.214 118.847 240.903 117.403C242.464 116.145 244.054 115.044 245.215 113.371C245.601 112.813 246.231 112.699 246.675 112.456C246.99 112.399 247.147 112.371 247.176 112.528C247.204 112.686 247.233 112.843 247.104 113.029C243.995 116.518 240.915 120.165 236.52 121.936C236.206 121.993 235.891 122.05 235.762 122.235ZM228.011 115.345C228.798 115.203 228.813 114.387 229.229 113.987C230.575 112.442 231.207 110.54 232.024 108.766C232.153 108.58 232.253 108.236 231.91 108.136C231.724 108.007 231.595 108.193 231.466 108.379C230.148 110.081 228.773 111.468 227.984 113.399C227.726 113.771 227.654 114.272 227.582 114.772C227.482 115.116 227.696 115.402 228.011 115.345Z" fill="#1F3A3A"/>
</svg>
