<svg width="25" height="25" viewBox="0 0 25 25" fill="none" xmlns="http://www.w3.org/2000/svg">
<path d="M24.5716 5.91128C24.5615 5.39288 24.52 4.87556 24.4471 4.3622C24.3603 3.90557 24.2128 3.46262 24.0085 3.04512C23.5612 2.16219 22.8442 1.44477 21.9616 0.996992C21.5468 0.793645 21.1067 0.646542 20.653 0.559576C20.1357 0.485242 19.6143 0.44287 19.0918 0.432701C18.8707 0.424242 18.5843 0.420617 18.4514 0.420617L6.5517 0.416992C6.41878 0.416992 6.13241 0.420617 5.91128 0.429076C5.39287 0.439064 4.87556 0.480627 4.3622 0.553534C3.90557 0.64034 3.46262 0.787858 3.04512 0.992159C2.16224 1.43948 1.44484 2.15646 0.996992 3.03908C0.793698 3.45391 0.646598 3.894 0.559576 4.3477C0.484904 4.86497 0.442129 5.38634 0.431492 5.90887C0.424242 6.12999 0.419409 6.41637 0.419409 6.54928L0.416992 18.4489C0.416992 18.5819 0.420617 18.8682 0.429076 19.0894C0.439064 19.6078 0.480627 20.1251 0.553534 20.6385C0.640354 21.0951 0.787871 21.538 0.992159 21.9555C1.43948 22.8384 2.15646 23.5558 3.03908 24.0037C3.45393 24.2069 3.894 24.354 4.3477 24.4411C4.86499 24.5154 5.38637 24.5578 5.90887 24.5679C6.12999 24.5764 6.41637 24.58 6.54928 24.58L18.449 24.5824C18.5819 24.5824 18.8682 24.5788 19.0894 24.5704C19.6078 24.5603 20.1251 24.5188 20.6385 24.4459C21.0951 24.359 21.538 24.2115 21.9555 24.0073C22.8389 23.5602 23.5567 22.8432 24.0049 21.9604C24.2082 21.5455 24.3553 21.1055 24.4423 20.6517C24.517 20.1345 24.5598 19.6131 24.5704 19.0906C24.5776 18.8694 24.5825 18.5831 24.5825 18.4502L24.5837 6.5517C24.5837 6.41878 24.58 6.13241 24.5716 5.91128ZM12.7625 20.9067H12.7589C11.3206 20.9064 9.90524 20.5458 8.64212 19.8579L4.07462 21.0553L5.29745 16.5929C4.35067 14.95 3.97236 13.0406 4.22119 11.1607C4.47001 9.28091 5.33208 7.53568 6.67371 6.19564C8.01535 4.8556 9.7616 3.99562 11.6417 3.74903C13.5219 3.50243 15.4308 3.88301 17.0727 4.83175C18.7145 5.78049 19.9974 7.24439 20.7226 8.99647C21.4478 10.7486 21.5747 12.691 21.0836 14.5225C20.5925 16.354 19.5109 17.9724 18.0064 19.1267C16.502 20.2809 14.6588 20.9066 12.7625 20.9067Z" fill="#43FFD2"/>
<path d="M12.7664 5.13011C11.4869 5.12974 10.2306 5.47217 9.12829 6.12178C8.02594 6.77139 7.11775 7.70447 6.49817 8.82398C5.87859 9.94349 5.57025 11.2085 5.60521 12.4876C5.64017 13.7666 6.01716 15.013 6.69697 16.0969L6.86734 16.3676L6.14355 19.009L8.85384 18.2985L9.11484 18.4532C10.2182 19.1066 11.4769 19.4514 12.7592 19.4513H12.7628C14.6621 19.4516 16.4837 18.6974 17.8269 17.3547C19.1701 16.0119 19.9249 14.1906 19.9252 12.2913C19.9255 10.392 19.1713 8.57043 17.8286 7.22722C16.4858 5.88401 14.6645 5.12923 12.7652 5.12891L12.7664 5.13011ZM16.9763 15.3647C16.8179 15.6263 16.6071 15.8522 16.3571 16.0284C16.1072 16.2045 15.8234 16.327 15.5238 16.3882C15.0715 16.4657 14.6073 16.4368 14.1681 16.3036C13.7516 16.1738 13.3422 16.0221 12.9416 15.8492C11.4551 15.1032 10.188 13.9835 9.26467 12.6C8.76101 11.9596 8.45528 11.186 8.38501 10.3743C8.3792 10.0392 8.44325 9.70664 8.57307 9.3977C8.70288 9.08876 8.89562 8.81025 9.13901 8.57991C9.21094 8.49785 9.29905 8.43156 9.39782 8.38519C9.4966 8.33882 9.60389 8.31337 9.71297 8.31045C9.85555 8.31045 9.99934 8.31045 10.125 8.3177C10.2579 8.32374 10.4343 8.26695 10.6083 8.68745C10.7896 9.11762 11.2198 10.1773 11.2729 10.2849C11.3071 10.3412 11.3266 10.4052 11.3297 10.4711C11.3329 10.5369 11.3196 10.6025 11.291 10.6619C11.2368 10.7911 11.1644 10.912 11.076 11.0207C10.9672 11.1464 10.85 11.3011 10.7533 11.3977C10.6446 11.5053 10.5334 11.6213 10.6579 11.8364C10.9811 12.3898 11.3847 12.8923 11.8553 13.3274C12.366 13.7815 12.952 14.1429 13.5869 14.3956C13.802 14.5044 13.9276 14.485 14.0533 14.3412C14.179 14.1974 14.591 13.7129 14.7348 13.4978C14.8786 13.2827 15.0212 13.319 15.2181 13.3903C15.4151 13.4616 16.4748 13.9824 16.6899 14.0911C16.905 14.1999 17.0488 14.2518 17.1019 14.3412C17.1609 14.6873 17.1172 15.0431 16.9763 15.3647Z" fill="#43FFD2"/>
</svg>
